<svg width="101" height="101" viewBox="0 0 101 101" fill="none" xmlns="http://www.w3.org/2000/svg">
<path d="M50.063 0.0629883C51.7605 26.9428 73.183 48.3656 100.063 50.063C73.183 51.7605 51.7605 73.183 50.063 100.063C48.3656 73.183 26.9428 51.7605 0.0630264 50.063C26.9428 48.3656 48.3656 26.9428 50.063 0.0629883Z" fill="#D3D9DF" stroke="white" stroke-width="2"/>
<path d="M50.1724 62.3812C48.4754 62.3812 46.9679 62.0744 45.6497 61.4607C44.3315 60.8471 43.2898 60.0024 42.5247 58.9266C41.7671 57.8509 41.3732 56.616 41.3429 55.2221H46.7974C46.8429 56.0781 47.1913 56.7675 47.8429 57.2903C48.4944 57.8054 49.2709 58.063 50.1724 58.063C50.8769 58.063 51.5019 57.9077 52.0474 57.5971C52.5929 57.2865 53.0209 56.8509 53.3315 56.2903C53.6421 55.7221 53.7936 55.0706 53.786 54.3357C53.7936 53.5857 53.6383 52.9304 53.3201 52.3698C53.0095 51.8092 52.5777 51.3736 52.0247 51.063C51.4792 50.7448 50.8504 50.5857 50.1383 50.5857C49.4641 50.5781 48.8239 50.7259 48.2179 51.0289C47.6194 51.3319 47.1648 51.7448 46.8542 52.2675L41.8883 51.3357L42.8997 38.7903H57.8315V43.3244H47.5247L46.9906 48.813H47.1269C47.5133 48.169 48.1345 47.6387 48.9906 47.2221C49.8542 46.7978 50.8353 46.5857 51.9338 46.5857C53.3277 46.5857 54.5701 46.9115 55.661 47.563C56.7595 48.2069 57.6232 49.1009 58.2519 50.2448C58.8883 51.3887 59.2065 52.6994 59.2065 54.1766C59.2065 55.7751 58.8277 57.1918 58.0701 58.4266C57.3201 59.6615 56.2671 60.6312 54.911 61.3357C53.5626 62.0327 51.983 62.3812 50.1724 62.3812Z" fill="#303943"/>
</svg>
