<svg width="101" height="101" viewBox="0 0 101 101" fill="none" xmlns="http://www.w3.org/2000/svg">
<path d="M50.063 0.0629883C51.7605 26.9428 73.183 48.3656 100.063 50.063C73.183 51.7605 51.7605 73.183 50.063 100.063C48.3656 73.183 26.9428 51.7605 0.0630188 50.063C26.9428 48.3656 48.3656 26.9428 50.063 0.0629883Z" fill="#997E38" stroke="white" stroke-width="2"/>
<path d="M49.9593 62.3812C48.1866 62.3812 46.6146 62.0781 45.2434 61.4721C43.8798 60.8584 42.804 60.0137 42.0161 58.938C41.2283 57.8622 40.8267 56.6236 40.8116 55.2221H46.4707C46.4934 55.7297 46.6563 56.1804 46.9593 56.5744C47.2624 56.9607 47.6752 57.2637 48.198 57.4834C48.7207 57.7031 49.3154 57.813 49.9821 57.813C50.6487 57.813 51.2358 57.6956 51.7434 57.4607C52.2586 57.2183 52.6601 56.8887 52.948 56.4721C53.2358 56.0478 53.376 55.563 53.3684 55.0175C53.376 54.4721 53.2207 53.9872 52.9025 53.563C52.5843 53.1387 52.1336 52.8092 51.5502 52.5744C50.9745 52.3395 50.2927 52.2221 49.5048 52.2221H47.2434V48.2221H49.5048C50.1942 48.2221 50.8002 48.1084 51.323 47.8812C51.8533 47.6539 52.2661 47.3357 52.5616 46.9266C52.8571 46.51 53.001 46.0327 52.9934 45.4948C53.001 44.9721 52.876 44.5137 52.6184 44.1198C52.3684 43.7183 52.0161 43.4077 51.5616 43.188C51.1146 42.9683 50.5957 42.8584 50.0048 42.8584C49.3836 42.8584 48.8192 42.9683 48.3116 43.188C47.8116 43.4077 47.4139 43.7183 47.1184 44.1198C46.823 44.5213 46.6677 44.9872 46.6525 45.5175H41.2775C41.2927 44.1312 41.679 42.9115 42.4366 41.8584C43.1942 40.7978 44.2245 39.9683 45.5275 39.3698C46.8381 38.7713 48.3305 38.4721 50.0048 38.4721C51.6714 38.4721 53.1374 38.7637 54.4025 39.3471C55.6677 39.9304 56.6525 40.7259 57.3571 41.7334C58.0616 42.7334 58.4139 43.866 58.4139 45.1312C58.4214 46.4418 57.9934 47.5213 57.1298 48.3698C56.2737 49.2183 55.1714 49.741 53.823 49.938V50.1198C55.626 50.3319 56.9858 50.9153 57.9025 51.8698C58.8268 52.8244 59.2851 54.0175 59.2775 55.4494C59.2775 56.7978 58.8798 57.9948 58.0843 59.0403C57.2964 60.0781 56.198 60.8963 54.7889 61.4948C53.3874 62.0857 51.7775 62.3812 49.9593 62.3812Z" fill="#D4A017"/>
</svg>
