<svg width="101" height="101" viewBox="0 0 101 101" fill="none" xmlns="http://www.w3.org/2000/svg">
<path d="M50.063 0.0629883C51.7605 26.9428 73.183 48.3656 100.063 50.063C73.183 51.7605 51.7605 73.183 50.063 100.063C48.3656 73.183 26.9428 51.7605 0.0630188 50.063C26.9428 48.3656 48.3656 26.9428 50.063 0.0629883Z" fill="#71C799" stroke="white" stroke-width="2"/>
<path d="M41.5758 62.063V58.0175L50.0644 50.5857C50.7008 50.01 51.2425 49.4834 51.6894 49.0062C52.1364 48.5213 52.4773 48.0365 52.7122 47.5516C52.947 47.0592 53.0644 46.5251 53.0644 45.9494C53.0644 45.3054 52.9243 44.7562 52.644 44.3016C52.3637 43.8395 51.9773 43.4834 51.4849 43.2334C50.9925 42.9834 50.4281 42.8584 49.7917 42.8584C49.1478 42.8584 48.5834 42.991 48.0985 43.2562C47.6137 43.5137 47.2349 43.8887 46.9622 44.3812C46.697 44.8736 46.5644 45.4721 46.5644 46.1766H41.2349C41.2349 44.5933 41.591 43.2259 42.3031 42.0744C43.0152 40.9228 44.0152 40.0365 45.3031 39.4153C46.5985 38.7865 48.1023 38.4721 49.8144 38.4721C51.5796 38.4721 53.1137 38.7675 54.4167 39.3584C55.7197 39.9494 56.7273 40.7751 57.4394 41.8357C58.1591 42.8887 58.519 44.1122 58.519 45.5062C58.519 46.3925 58.341 47.2713 57.9849 48.1425C57.6288 49.0137 56.9887 49.9759 56.0644 51.0289C55.1478 52.0819 53.8447 53.3433 52.1553 54.813L49.3713 57.3812V57.5289H58.8031V62.063H41.5758Z" fill="#38A169"/>
</svg>
